<svg xmlns="http://www.w3.org/2000/svg" viewBox="0 0 32 32" fill="none">
  <rect width="32" height="32" rx="8" fill="url(#g)"/>
  <path d="M16 7c-2.5 0-4.5 1-6 3-.5.7-.3 1.6.4 2 .7.5 1.6.3 2-.4 1-1.2 2.2-1.8 3.6-1.8 2.8 0 5 2.2 5 5s-2.2 5-5 5c-1.4 0-2.6-.6-3.6-1.8-.4-.6-1.3-.8-2-.4-.7.4-.9 1.3-.4 2 1.5 2 3.5 3 6 3 4 0 7.2-3.2 7.2-7.2S20 7 16 7z" fill="white"/>
  <circle cx="16" cy="15.8" r="2.5" fill="white"/>
  <defs>
    <linearGradient id="g" x1="0" y1="0" x2="32" y2="32">
      <stop stop-color="#14b8a6"/>
      <stop offset="1" stop-color="#0f766e"/>
    </linearGradient>
  </defs>
</svg>